<mxfile host="app.diagrams.net" modified="2022-02-07T13:11:46.597Z" agent="5.0 (Windows NT 10.0; Win64; x64) AppleWebKit/537.36 (KHTML, like Gecko) Chrome/97.0.4692.99 Safari/537.36" etag="l3xt3c4Mlw66nARMn6uS" version="16.5.3" type="github">
  <diagram id="vaaXanVT9BVrQvnsYobI" name="Page-1">
    <mxGraphModel dx="2076" dy="2178" grid="1" gridSize="10" guides="1" tooltips="1" connect="1" arrows="1" fold="1" page="1" pageScale="1" pageWidth="850" pageHeight="1100" math="0" shadow="0">
      <root>
        <mxCell id="0" />
        <mxCell id="1" parent="0" />
        <mxCell id="X5ZohRRJykLTLMZnYuT2-164" value="" style="rounded=0;whiteSpace=wrap;html=1;fontSize=13;" vertex="1" parent="1">
          <mxGeometry x="150" y="1160" width="880" height="1060" as="geometry" />
        </mxCell>
        <mxCell id="X5ZohRRJykLTLMZnYuT2-94" value="" style="rounded=0;whiteSpace=wrap;html=1;fontSize=11;" vertex="1" parent="1">
          <mxGeometry x="250" y="350" width="370" height="700" as="geometry" />
        </mxCell>
        <mxCell id="X5ZohRRJykLTLMZnYuT2-50" value="" style="rounded=0;whiteSpace=wrap;html=1;" vertex="1" parent="1">
          <mxGeometry x="210" y="-90" width="580" height="390" as="geometry" />
        </mxCell>
        <mxCell id="X5ZohRRJykLTLMZnYuT2-2" value="User" style="shape=umlActor;verticalLabelPosition=bottom;verticalAlign=top;html=1;outlineConnect=0;" vertex="1" parent="1">
          <mxGeometry x="150" y="65" width="30" height="60" as="geometry" />
        </mxCell>
        <mxCell id="X5ZohRRJykLTLMZnYuT2-7" value="Sign Up" style="ellipse;whiteSpace=wrap;html=1;" vertex="1" parent="1">
          <mxGeometry x="220" y="-50" width="140" height="70" as="geometry" />
        </mxCell>
        <mxCell id="X5ZohRRJykLTLMZnYuT2-9" value="" style="endArrow=none;html=1;rounded=0;exitX=0.5;exitY=0.5;exitDx=0;exitDy=0;exitPerimeter=0;entryX=0;entryY=0.5;entryDx=0;entryDy=0;" edge="1" parent="1" source="X5ZohRRJykLTLMZnYuT2-2" target="X5ZohRRJykLTLMZnYuT2-7">
          <mxGeometry relative="1" as="geometry">
            <mxPoint x="360" y="130" as="sourcePoint" />
            <mxPoint x="520" y="130" as="targetPoint" />
          </mxGeometry>
        </mxCell>
        <mxCell id="X5ZohRRJykLTLMZnYuT2-13" value="Includes" style="html=1;verticalAlign=bottom;endArrow=open;dashed=1;endSize=8;rounded=0;" edge="1" parent="1" source="X5ZohRRJykLTLMZnYuT2-7" target="X5ZohRRJykLTLMZnYuT2-14">
          <mxGeometry relative="1" as="geometry">
            <mxPoint x="470" y="80" as="sourcePoint" />
            <mxPoint x="440" y="30" as="targetPoint" />
          </mxGeometry>
        </mxCell>
        <mxCell id="X5ZohRRJykLTLMZnYuT2-14" value="Survey" style="ellipse;whiteSpace=wrap;html=1;" vertex="1" parent="1">
          <mxGeometry x="420" y="-50" width="140" height="70" as="geometry" />
        </mxCell>
        <mxCell id="X5ZohRRJykLTLMZnYuT2-15" value="Counselor&amp;nbsp;&lt;br&gt;Sign Up" style="ellipse;whiteSpace=wrap;html=1;" vertex="1" parent="1">
          <mxGeometry x="320" y="200" width="140" height="70" as="geometry" />
        </mxCell>
        <mxCell id="X5ZohRRJykLTLMZnYuT2-17" value="" style="endArrow=none;html=1;rounded=0;entryX=0;entryY=0.5;entryDx=0;entryDy=0;exitX=0.5;exitY=0.5;exitDx=0;exitDy=0;exitPerimeter=0;" edge="1" parent="1" source="X5ZohRRJykLTLMZnYuT2-4" target="X5ZohRRJykLTLMZnYuT2-15">
          <mxGeometry relative="1" as="geometry">
            <mxPoint x="510" y="460" as="sourcePoint" />
            <mxPoint x="670" y="460" as="targetPoint" />
          </mxGeometry>
        </mxCell>
        <mxCell id="X5ZohRRJykLTLMZnYuT2-38" value="Log In" style="ellipse;whiteSpace=wrap;html=1;" vertex="1" parent="1">
          <mxGeometry x="320" y="60" width="140" height="70" as="geometry" />
        </mxCell>
        <mxCell id="X5ZohRRJykLTLMZnYuT2-39" value="" style="endArrow=none;html=1;rounded=0;exitX=0.5;exitY=0.5;exitDx=0;exitDy=0;exitPerimeter=0;" edge="1" parent="1" source="X5ZohRRJykLTLMZnYuT2-2" target="X5ZohRRJykLTLMZnYuT2-38">
          <mxGeometry relative="1" as="geometry">
            <mxPoint x="360" y="200" as="sourcePoint" />
            <mxPoint x="240" y="210" as="targetPoint" />
          </mxGeometry>
        </mxCell>
        <mxCell id="X5ZohRRJykLTLMZnYuT2-40" value="" style="endArrow=none;html=1;rounded=0;entryX=0;entryY=1;entryDx=0;entryDy=0;startArrow=none;exitX=0.5;exitY=0.5;exitDx=0;exitDy=0;exitPerimeter=0;" edge="1" parent="1" source="X5ZohRRJykLTLMZnYuT2-4" target="X5ZohRRJykLTLMZnYuT2-38">
          <mxGeometry relative="1" as="geometry">
            <mxPoint x="155" y="230" as="sourcePoint" />
            <mxPoint x="390" y="549.9999999999998" as="targetPoint" />
          </mxGeometry>
        </mxCell>
        <mxCell id="X5ZohRRJykLTLMZnYuT2-41" value="Includes" style="html=1;verticalAlign=bottom;endArrow=open;dashed=1;endSize=8;rounded=0;" edge="1" parent="1" source="X5ZohRRJykLTLMZnYuT2-38" target="X5ZohRRJykLTLMZnYuT2-42">
          <mxGeometry relative="1" as="geometry">
            <mxPoint x="480" y="200" as="sourcePoint" />
            <mxPoint x="400" y="200" as="targetPoint" />
          </mxGeometry>
        </mxCell>
        <mxCell id="X5ZohRRJykLTLMZnYuT2-42" value="Account Verification" style="ellipse;whiteSpace=wrap;html=1;" vertex="1" parent="1">
          <mxGeometry x="610" y="59.99999999999977" width="140" height="70" as="geometry" />
        </mxCell>
        <mxCell id="X5ZohRRJykLTLMZnYuT2-44" value="Website Account System" style="shape=umlActor;verticalLabelPosition=bottom;verticalAlign=top;html=1;" vertex="1" parent="1">
          <mxGeometry x="840" y="65" width="30" height="60" as="geometry" />
        </mxCell>
        <mxCell id="X5ZohRRJykLTLMZnYuT2-45" value="" style="endArrow=none;html=1;rounded=0;exitX=1;exitY=0.5;exitDx=0;exitDy=0;entryX=0.5;entryY=0.5;entryDx=0;entryDy=0;entryPerimeter=0;" edge="1" parent="1" source="X5ZohRRJykLTLMZnYuT2-42" target="X5ZohRRJykLTLMZnYuT2-44">
          <mxGeometry relative="1" as="geometry">
            <mxPoint x="360" y="120" as="sourcePoint" />
            <mxPoint x="520" y="120" as="targetPoint" />
          </mxGeometry>
        </mxCell>
        <mxCell id="X5ZohRRJykLTLMZnYuT2-48" value="Extends" style="html=1;verticalAlign=bottom;endArrow=open;dashed=1;endSize=8;rounded=0;entryX=0.726;entryY=0.067;entryDx=0;entryDy=0;exitX=0.5;exitY=1;exitDx=0;exitDy=0;entryPerimeter=0;" edge="1" parent="1" source="X5ZohRRJykLTLMZnYuT2-14" target="X5ZohRRJykLTLMZnYuT2-38">
          <mxGeometry relative="1" as="geometry">
            <mxPoint x="600" y="70" as="sourcePoint" />
            <mxPoint x="520" y="70" as="targetPoint" />
          </mxGeometry>
        </mxCell>
        <mxCell id="X5ZohRRJykLTLMZnYuT2-4" value="Counselor" style="shape=umlActor;verticalLabelPosition=bottom;verticalAlign=top;html=1;outlineConnect=0;" vertex="1" parent="1">
          <mxGeometry x="150" y="205" width="30" height="60" as="geometry" />
        </mxCell>
        <mxCell id="X5ZohRRJykLTLMZnYuT2-51" value="&lt;font style=&quot;font-size: 13px&quot;&gt;Log In / Sign Up&lt;/font&gt;" style="text;strokeColor=none;fillColor=none;html=1;fontSize=24;fontStyle=1;verticalAlign=middle;align=center;" vertex="1" parent="1">
          <mxGeometry x="220" y="-100" width="100" height="40" as="geometry" />
        </mxCell>
        <mxCell id="X5ZohRRJykLTLMZnYuT2-54" value="License Verification" style="ellipse;whiteSpace=wrap;html=1;fontSize=13;" vertex="1" parent="1">
          <mxGeometry x="610" y="200" width="140" height="70" as="geometry" />
        </mxCell>
        <mxCell id="X5ZohRRJykLTLMZnYuT2-55" value="&lt;font style=&quot;font-size: 11px&quot;&gt;Includes&lt;/font&gt;" style="html=1;verticalAlign=bottom;endArrow=open;dashed=1;endSize=8;rounded=0;fontSize=13;exitX=1;exitY=0.5;exitDx=0;exitDy=0;" edge="1" parent="1" source="X5ZohRRJykLTLMZnYuT2-15" target="X5ZohRRJykLTLMZnYuT2-54">
          <mxGeometry relative="1" as="geometry">
            <mxPoint x="580" y="100" as="sourcePoint" />
            <mxPoint x="500" y="100" as="targetPoint" />
          </mxGeometry>
        </mxCell>
        <mxCell id="X5ZohRRJykLTLMZnYuT2-56" value="User" style="shape=umlActor;verticalLabelPosition=bottom;verticalAlign=top;html=1;outlineConnect=0;" vertex="1" parent="1">
          <mxGeometry x="200" y="647.03" width="30" height="60" as="geometry" />
        </mxCell>
        <mxCell id="X5ZohRRJykLTLMZnYuT2-57" value="Counselor" style="shape=umlActor;verticalLabelPosition=bottom;verticalAlign=top;html=1;outlineConnect=0;" vertex="1" parent="1">
          <mxGeometry x="200" y="800" width="30" height="60" as="geometry" />
        </mxCell>
        <mxCell id="X5ZohRRJykLTLMZnYuT2-58" value="Publish" style="ellipse;whiteSpace=wrap;html=1;fontSize=11;" vertex="1" parent="1">
          <mxGeometry x="355" y="500" width="140" height="70" as="geometry" />
        </mxCell>
        <mxCell id="X5ZohRRJykLTLMZnYuT2-59" value="" style="endArrow=none;html=1;rounded=0;fontSize=11;exitX=0.5;exitY=0.5;exitDx=0;exitDy=0;exitPerimeter=0;entryX=0;entryY=0.5;entryDx=0;entryDy=0;" edge="1" parent="1" source="X5ZohRRJykLTLMZnYuT2-56" target="X5ZohRRJykLTLMZnYuT2-58">
          <mxGeometry relative="1" as="geometry">
            <mxPoint x="510" y="617.03" as="sourcePoint" />
            <mxPoint x="670" y="617.03" as="targetPoint" />
          </mxGeometry>
        </mxCell>
        <mxCell id="X5ZohRRJykLTLMZnYuT2-60" value="Image Attachment" style="ellipse;whiteSpace=wrap;html=1;fontSize=11;" vertex="1" parent="1">
          <mxGeometry x="355" y="380" width="140" height="70" as="geometry" />
        </mxCell>
        <mxCell id="X5ZohRRJykLTLMZnYuT2-62" value="Extends" style="html=1;verticalAlign=bottom;endArrow=open;dashed=1;endSize=8;rounded=0;fontSize=11;" edge="1" parent="1" source="X5ZohRRJykLTLMZnYuT2-60" target="X5ZohRRJykLTLMZnYuT2-58">
          <mxGeometry relative="1" as="geometry">
            <mxPoint x="276.32000000000016" y="549.9999999999998" as="sourcePoint" />
            <mxPoint x="540" y="642.03" as="targetPoint" />
          </mxGeometry>
        </mxCell>
        <mxCell id="X5ZohRRJykLTLMZnYuT2-65" value="" style="endArrow=none;html=1;rounded=0;fontSize=11;exitX=0.5;exitY=0.5;exitDx=0;exitDy=0;exitPerimeter=0;entryX=0;entryY=0.5;entryDx=0;entryDy=0;" edge="1" parent="1" source="X5ZohRRJykLTLMZnYuT2-56" target="X5ZohRRJykLTLMZnYuT2-66">
          <mxGeometry relative="1" as="geometry">
            <mxPoint x="500" y="642.03" as="sourcePoint" />
            <mxPoint x="310" y="702.03" as="targetPoint" />
          </mxGeometry>
        </mxCell>
        <mxCell id="X5ZohRRJykLTLMZnYuT2-66" value="Comment" style="ellipse;whiteSpace=wrap;html=1;fontSize=11;" vertex="1" parent="1">
          <mxGeometry x="355" y="580" width="140" height="70" as="geometry" />
        </mxCell>
        <mxCell id="X5ZohRRJykLTLMZnYuT2-69" value="Edit" style="ellipse;whiteSpace=wrap;html=1;fontSize=11;" vertex="1" parent="1">
          <mxGeometry x="355" y="660" width="140" height="70" as="geometry" />
        </mxCell>
        <mxCell id="X5ZohRRJykLTLMZnYuT2-70" value="Delete&amp;nbsp;" style="ellipse;whiteSpace=wrap;html=1;fontSize=11;" vertex="1" parent="1">
          <mxGeometry x="355" y="740" width="140" height="70" as="geometry" />
        </mxCell>
        <mxCell id="X5ZohRRJykLTLMZnYuT2-73" value="" style="endArrow=none;html=1;rounded=0;fontSize=11;exitX=0.5;exitY=0.5;exitDx=0;exitDy=0;exitPerimeter=0;entryX=0;entryY=0.5;entryDx=0;entryDy=0;" edge="1" parent="1" source="X5ZohRRJykLTLMZnYuT2-56" target="X5ZohRRJykLTLMZnYuT2-69">
          <mxGeometry relative="1" as="geometry">
            <mxPoint x="225" y="687.0299999999997" as="sourcePoint" />
            <mxPoint x="321.7564793963511" y="654.4145068678831" as="targetPoint" />
          </mxGeometry>
        </mxCell>
        <mxCell id="X5ZohRRJykLTLMZnYuT2-74" value="" style="endArrow=none;html=1;rounded=0;fontSize=11;exitX=0.5;exitY=0.5;exitDx=0;exitDy=0;exitPerimeter=0;entryX=0;entryY=0.5;entryDx=0;entryDy=0;" edge="1" parent="1" source="X5ZohRRJykLTLMZnYuT2-56" target="X5ZohRRJykLTLMZnYuT2-70">
          <mxGeometry relative="1" as="geometry">
            <mxPoint x="235" y="697.0299999999997" as="sourcePoint" />
            <mxPoint x="331.7564793963511" y="664.4145068678831" as="targetPoint" />
          </mxGeometry>
        </mxCell>
        <mxCell id="X5ZohRRJykLTLMZnYuT2-75" value="View&amp;nbsp;" style="ellipse;whiteSpace=wrap;html=1;fontSize=11;" vertex="1" parent="1">
          <mxGeometry x="355" y="820" width="140" height="70" as="geometry" />
        </mxCell>
        <mxCell id="X5ZohRRJykLTLMZnYuT2-76" value="" style="endArrow=none;html=1;rounded=0;fontSize=11;entryX=-0.002;entryY=0.429;entryDx=0;entryDy=0;entryPerimeter=0;exitX=0.5;exitY=0.5;exitDx=0;exitDy=0;exitPerimeter=0;" edge="1" parent="1" source="X5ZohRRJykLTLMZnYuT2-56" target="X5ZohRRJykLTLMZnYuT2-75">
          <mxGeometry relative="1" as="geometry">
            <mxPoint x="200" y="790" as="sourcePoint" />
            <mxPoint x="310" y="785" as="targetPoint" />
          </mxGeometry>
        </mxCell>
        <mxCell id="X5ZohRRJykLTLMZnYuT2-77" value="Post" style="shape=umlActor;verticalLabelPosition=bottom;verticalAlign=top;html=1;fontSize=11;" vertex="1" parent="1">
          <mxGeometry x="640" y="650" width="30" height="60" as="geometry" />
        </mxCell>
        <mxCell id="X5ZohRRJykLTLMZnYuT2-78" value="" style="endArrow=none;html=1;rounded=0;fontSize=11;exitX=1;exitY=0.5;exitDx=0;exitDy=0;entryX=0.5;entryY=0.5;entryDx=0;entryDy=0;entryPerimeter=0;" edge="1" parent="1" source="X5ZohRRJykLTLMZnYuT2-66" target="X5ZohRRJykLTLMZnYuT2-77">
          <mxGeometry relative="1" as="geometry">
            <mxPoint x="460" y="600" as="sourcePoint" />
            <mxPoint x="620" y="600" as="targetPoint" />
          </mxGeometry>
        </mxCell>
        <mxCell id="X5ZohRRJykLTLMZnYuT2-79" value="" style="endArrow=none;html=1;rounded=0;fontSize=11;exitX=1;exitY=0.5;exitDx=0;exitDy=0;entryX=0.5;entryY=0.5;entryDx=0;entryDy=0;entryPerimeter=0;" edge="1" parent="1" source="X5ZohRRJykLTLMZnYuT2-75" target="X5ZohRRJykLTLMZnYuT2-77">
          <mxGeometry relative="1" as="geometry">
            <mxPoint x="360" y="780" as="sourcePoint" />
            <mxPoint x="675" y="865" as="targetPoint" />
          </mxGeometry>
        </mxCell>
        <mxCell id="X5ZohRRJykLTLMZnYuT2-80" value="" style="endArrow=none;html=1;rounded=0;fontSize=11;exitX=1;exitY=0.5;exitDx=0;exitDy=0;entryX=0.5;entryY=0.5;entryDx=0;entryDy=0;entryPerimeter=0;" edge="1" parent="1" source="X5ZohRRJykLTLMZnYuT2-70" target="X5ZohRRJykLTLMZnYuT2-77">
          <mxGeometry relative="1" as="geometry">
            <mxPoint x="450" y="780" as="sourcePoint" />
            <mxPoint x="765" y="865" as="targetPoint" />
          </mxGeometry>
        </mxCell>
        <mxCell id="X5ZohRRJykLTLMZnYuT2-81" value="" style="endArrow=none;html=1;rounded=0;fontSize=11;exitX=1;exitY=0.5;exitDx=0;exitDy=0;entryX=0.5;entryY=0.5;entryDx=0;entryDy=0;entryPerimeter=0;" edge="1" parent="1" source="X5ZohRRJykLTLMZnYuT2-69" target="X5ZohRRJykLTLMZnYuT2-77">
          <mxGeometry relative="1" as="geometry">
            <mxPoint x="470" y="645" as="sourcePoint" />
            <mxPoint x="670" y="780" as="targetPoint" />
          </mxGeometry>
        </mxCell>
        <mxCell id="X5ZohRRJykLTLMZnYuT2-82" value="" style="endArrow=none;html=1;rounded=0;fontSize=11;exitX=1;exitY=0.5;exitDx=0;exitDy=0;entryX=0.5;entryY=0.5;entryDx=0;entryDy=0;entryPerimeter=0;" edge="1" parent="1" source="X5ZohRRJykLTLMZnYuT2-58" target="X5ZohRRJykLTLMZnYuT2-77">
          <mxGeometry relative="1" as="geometry">
            <mxPoint x="480" y="655" as="sourcePoint" />
            <mxPoint x="795" y="740" as="targetPoint" />
          </mxGeometry>
        </mxCell>
        <mxCell id="X5ZohRRJykLTLMZnYuT2-83" value="" style="endArrow=none;html=1;rounded=0;fontSize=11;entryX=0;entryY=0.5;entryDx=0;entryDy=0;exitX=0.5;exitY=0.5;exitDx=0;exitDy=0;exitPerimeter=0;" edge="1" parent="1" source="X5ZohRRJykLTLMZnYuT2-57" target="X5ZohRRJykLTLMZnYuT2-58">
          <mxGeometry relative="1" as="geometry">
            <mxPoint x="490" y="665" as="sourcePoint" />
            <mxPoint x="805" y="750" as="targetPoint" />
          </mxGeometry>
        </mxCell>
        <mxCell id="X5ZohRRJykLTLMZnYuT2-84" value="" style="endArrow=none;html=1;rounded=0;fontSize=11;entryX=0;entryY=0.5;entryDx=0;entryDy=0;exitX=0.5;exitY=0.5;exitDx=0;exitDy=0;exitPerimeter=0;" edge="1" parent="1" source="X5ZohRRJykLTLMZnYuT2-57" target="X5ZohRRJykLTLMZnYuT2-66">
          <mxGeometry relative="1" as="geometry">
            <mxPoint x="500" y="675" as="sourcePoint" />
            <mxPoint x="815" y="760" as="targetPoint" />
          </mxGeometry>
        </mxCell>
        <mxCell id="X5ZohRRJykLTLMZnYuT2-85" value="" style="endArrow=none;html=1;rounded=0;fontSize=11;exitX=0.5;exitY=0.5;exitDx=0;exitDy=0;entryX=0;entryY=0.5;entryDx=0;entryDy=0;exitPerimeter=0;" edge="1" parent="1" source="X5ZohRRJykLTLMZnYuT2-57" target="X5ZohRRJykLTLMZnYuT2-69">
          <mxGeometry relative="1" as="geometry">
            <mxPoint x="510" y="685" as="sourcePoint" />
            <mxPoint x="825" y="770" as="targetPoint" />
          </mxGeometry>
        </mxCell>
        <mxCell id="X5ZohRRJykLTLMZnYuT2-86" value="" style="endArrow=none;html=1;rounded=0;fontSize=11;exitX=0.5;exitY=0.5;exitDx=0;exitDy=0;entryX=0;entryY=0.5;entryDx=0;entryDy=0;exitPerimeter=0;" edge="1" parent="1" source="X5ZohRRJykLTLMZnYuT2-57" target="X5ZohRRJykLTLMZnYuT2-70">
          <mxGeometry relative="1" as="geometry">
            <mxPoint x="520" y="695" as="sourcePoint" />
            <mxPoint x="835" y="780" as="targetPoint" />
          </mxGeometry>
        </mxCell>
        <mxCell id="X5ZohRRJykLTLMZnYuT2-87" value="" style="endArrow=none;html=1;rounded=0;fontSize=11;exitX=0.5;exitY=0.5;exitDx=0;exitDy=0;entryX=0;entryY=0.5;entryDx=0;entryDy=0;exitPerimeter=0;" edge="1" parent="1" source="X5ZohRRJykLTLMZnYuT2-57" target="X5ZohRRJykLTLMZnYuT2-75">
          <mxGeometry relative="1" as="geometry">
            <mxPoint x="530" y="705" as="sourcePoint" />
            <mxPoint x="845" y="790" as="targetPoint" />
          </mxGeometry>
        </mxCell>
        <mxCell id="X5ZohRRJykLTLMZnYuT2-88" value="Remove as Admin" style="ellipse;whiteSpace=wrap;html=1;fontSize=11;" vertex="1" parent="1">
          <mxGeometry x="355" y="900" width="140" height="70" as="geometry" />
        </mxCell>
        <mxCell id="X5ZohRRJykLTLMZnYuT2-89" value="" style="endArrow=none;html=1;rounded=0;fontSize=11;exitX=0.5;exitY=0.5;exitDx=0;exitDy=0;exitPerimeter=0;entryX=0;entryY=0.5;entryDx=0;entryDy=0;" edge="1" parent="1" source="X5ZohRRJykLTLMZnYuT2-57" target="X5ZohRRJykLTLMZnYuT2-88">
          <mxGeometry relative="1" as="geometry">
            <mxPoint x="460" y="770" as="sourcePoint" />
            <mxPoint x="620" y="770" as="targetPoint" />
          </mxGeometry>
        </mxCell>
        <mxCell id="X5ZohRRJykLTLMZnYuT2-90" value="" style="endArrow=none;html=1;rounded=0;fontSize=11;exitX=1;exitY=0.5;exitDx=0;exitDy=0;entryX=0.5;entryY=0.5;entryDx=0;entryDy=0;entryPerimeter=0;" edge="1" parent="1" source="X5ZohRRJykLTLMZnYuT2-88" target="X5ZohRRJykLTLMZnYuT2-77">
          <mxGeometry relative="1" as="geometry">
            <mxPoint x="540" y="715" as="sourcePoint" />
            <mxPoint x="855" y="800" as="targetPoint" />
          </mxGeometry>
        </mxCell>
        <mxCell id="X5ZohRRJykLTLMZnYuT2-91" value="Search Bar" style="shape=umlActor;verticalLabelPosition=bottom;verticalAlign=top;html=1;fontSize=11;" vertex="1" parent="1">
          <mxGeometry x="200" y="980" width="30" height="60" as="geometry" />
        </mxCell>
        <mxCell id="X5ZohRRJykLTLMZnYuT2-92" value="Search for Keywords" style="ellipse;whiteSpace=wrap;html=1;fontSize=11;" vertex="1" parent="1">
          <mxGeometry x="355" y="975" width="140" height="70" as="geometry" />
        </mxCell>
        <mxCell id="X5ZohRRJykLTLMZnYuT2-93" value="" style="endArrow=none;html=1;rounded=0;fontSize=11;exitX=0.5;exitY=0.5;exitDx=0;exitDy=0;exitPerimeter=0;" edge="1" parent="1" source="X5ZohRRJykLTLMZnYuT2-91" target="X5ZohRRJykLTLMZnYuT2-92">
          <mxGeometry relative="1" as="geometry">
            <mxPoint x="230" y="1000" as="sourcePoint" />
            <mxPoint x="620" y="930" as="targetPoint" />
          </mxGeometry>
        </mxCell>
        <mxCell id="X5ZohRRJykLTLMZnYuT2-97" value="&lt;font style=&quot;font-size: 13px&quot;&gt;Forum&lt;/font&gt;" style="text;strokeColor=none;fillColor=none;html=1;fontSize=24;fontStyle=1;verticalAlign=middle;align=center;" vertex="1" parent="1">
          <mxGeometry x="230" y="350" width="100" height="40" as="geometry" />
        </mxCell>
        <mxCell id="X5ZohRRJykLTLMZnYuT2-99" value="User" style="shape=umlActor;verticalLabelPosition=bottom;verticalAlign=top;html=1;fontSize=13;" vertex="1" parent="1">
          <mxGeometry x="100" y="1430" width="30" height="60" as="geometry" />
        </mxCell>
        <mxCell id="X5ZohRRJykLTLMZnYuT2-102" value="Counselor" style="shape=umlActor;verticalLabelPosition=bottom;verticalAlign=top;html=1;outlineConnect=0;" vertex="1" parent="1">
          <mxGeometry x="90" y="1870" width="30" height="60" as="geometry" />
        </mxCell>
        <mxCell id="X5ZohRRJykLTLMZnYuT2-103" value="Create User Profile" style="ellipse;whiteSpace=wrap;html=1;fontSize=13;" vertex="1" parent="1">
          <mxGeometry x="400" y="1320" width="140" height="70" as="geometry" />
        </mxCell>
        <mxCell id="X5ZohRRJykLTLMZnYuT2-104" value="" style="endArrow=none;html=1;rounded=0;fontSize=13;exitX=0.5;exitY=0.5;exitDx=0;exitDy=0;exitPerimeter=0;entryX=0;entryY=0.5;entryDx=0;entryDy=0;" edge="1" parent="1" source="X5ZohRRJykLTLMZnYuT2-99" target="X5ZohRRJykLTLMZnYuT2-103">
          <mxGeometry relative="1" as="geometry">
            <mxPoint x="570" y="1510" as="sourcePoint" />
            <mxPoint x="730" y="1510" as="targetPoint" />
          </mxGeometry>
        </mxCell>
        <mxCell id="X5ZohRRJykLTLMZnYuT2-105" value="Profile Picture" style="ellipse;whiteSpace=wrap;html=1;fontSize=13;" vertex="1" parent="1">
          <mxGeometry x="220" y="1220" width="140" height="70" as="geometry" />
        </mxCell>
        <mxCell id="X5ZohRRJykLTLMZnYuT2-106" value="Extends" style="html=1;verticalAlign=bottom;endArrow=open;dashed=1;endSize=8;rounded=0;fontSize=13;entryX=0;entryY=0;entryDx=0;entryDy=0;exitX=1;exitY=1;exitDx=0;exitDy=0;" edge="1" parent="1" source="X5ZohRRJykLTLMZnYuT2-105" target="X5ZohRRJykLTLMZnYuT2-103">
          <mxGeometry relative="1" as="geometry">
            <mxPoint x="260" y="1320" as="sourcePoint" />
            <mxPoint x="430" y="1370" as="targetPoint" />
          </mxGeometry>
        </mxCell>
        <mxCell id="X5ZohRRJykLTLMZnYuT2-107" value="Text Description" style="ellipse;whiteSpace=wrap;html=1;fontSize=13;" vertex="1" parent="1">
          <mxGeometry x="400" y="1210" width="140" height="70" as="geometry" />
        </mxCell>
        <mxCell id="X5ZohRRJykLTLMZnYuT2-108" value="Extends" style="html=1;verticalAlign=bottom;endArrow=open;dashed=1;endSize=8;rounded=0;fontSize=13;entryX=0.5;entryY=0;entryDx=0;entryDy=0;exitX=0.5;exitY=1;exitDx=0;exitDy=0;" edge="1" parent="1" source="X5ZohRRJykLTLMZnYuT2-107" target="X5ZohRRJykLTLMZnYuT2-103">
          <mxGeometry relative="1" as="geometry">
            <mxPoint x="650" y="1300" as="sourcePoint" />
            <mxPoint x="570" y="1300" as="targetPoint" />
          </mxGeometry>
        </mxCell>
        <mxCell id="X5ZohRRJykLTLMZnYuT2-109" value="Edit User Profile" style="ellipse;whiteSpace=wrap;html=1;fontSize=13;" vertex="1" parent="1">
          <mxGeometry x="400" y="1425" width="140" height="70" as="geometry" />
        </mxCell>
        <mxCell id="X5ZohRRJykLTLMZnYuT2-110" value="" style="endArrow=none;html=1;rounded=0;fontSize=13;exitX=0.5;exitY=0.5;exitDx=0;exitDy=0;exitPerimeter=0;entryX=0;entryY=0.5;entryDx=0;entryDy=0;" edge="1" parent="1" source="X5ZohRRJykLTLMZnYuT2-99" target="X5ZohRRJykLTLMZnYuT2-109">
          <mxGeometry relative="1" as="geometry">
            <mxPoint x="530" y="1540" as="sourcePoint" />
            <mxPoint x="690" y="1540" as="targetPoint" />
          </mxGeometry>
        </mxCell>
        <mxCell id="X5ZohRRJykLTLMZnYuT2-111" value="Include" style="html=1;verticalAlign=bottom;endArrow=open;dashed=1;endSize=8;rounded=0;fontSize=13;exitX=0;exitY=0.5;exitDx=0;exitDy=0;" edge="1" parent="1" source="X5ZohRRJykLTLMZnYuT2-112" target="X5ZohRRJykLTLMZnYuT2-129">
          <mxGeometry relative="1" as="geometry">
            <mxPoint x="665" y="1383.82" as="sourcePoint" />
            <mxPoint x="1035" y="1283.82" as="targetPoint" />
          </mxGeometry>
        </mxCell>
        <mxCell id="X5ZohRRJykLTLMZnYuT2-112" value="Enter Old Password" style="ellipse;whiteSpace=wrap;html=1;fontSize=13;" vertex="1" parent="1">
          <mxGeometry x="845" y="1283.82" width="140" height="70" as="geometry" />
        </mxCell>
        <mxCell id="X5ZohRRJykLTLMZnYuT2-114" value="Include" style="html=1;verticalAlign=bottom;endArrow=open;dashed=1;endSize=8;rounded=0;fontSize=13;exitX=0;exitY=0.5;exitDx=0;exitDy=0;" edge="1" parent="1" source="X5ZohRRJykLTLMZnYuT2-115" target="X5ZohRRJykLTLMZnYuT2-129">
          <mxGeometry relative="1" as="geometry">
            <mxPoint x="685.08" y="1543.82" as="sourcePoint" />
            <mxPoint x="915" y="1433.82" as="targetPoint" />
          </mxGeometry>
        </mxCell>
        <mxCell id="X5ZohRRJykLTLMZnYuT2-115" value="Enter New Password" style="ellipse;whiteSpace=wrap;html=1;fontSize=13;" vertex="1" parent="1">
          <mxGeometry x="845" y="1383.82" width="140" height="70" as="geometry" />
        </mxCell>
        <mxCell id="X5ZohRRJykLTLMZnYuT2-117" value="Cancel Appointment" style="ellipse;whiteSpace=wrap;html=1;fontSize=13;" vertex="1" parent="1">
          <mxGeometry x="400" y="1530" width="140" height="70" as="geometry" />
        </mxCell>
        <mxCell id="X5ZohRRJykLTLMZnYuT2-118" value="View Appointment" style="ellipse;whiteSpace=wrap;html=1;fontSize=13;" vertex="1" parent="1">
          <mxGeometry x="400" y="1640" width="140" height="70" as="geometry" />
        </mxCell>
        <mxCell id="X5ZohRRJykLTLMZnYuT2-119" value="" style="endArrow=none;html=1;rounded=0;fontSize=13;exitX=0.5;exitY=0.5;exitDx=0;exitDy=0;exitPerimeter=0;entryX=0;entryY=0.5;entryDx=0;entryDy=0;" edge="1" parent="1" source="X5ZohRRJykLTLMZnYuT2-99" target="X5ZohRRJykLTLMZnYuT2-117">
          <mxGeometry relative="1" as="geometry">
            <mxPoint x="530" y="1540" as="sourcePoint" />
            <mxPoint x="690" y="1540" as="targetPoint" />
          </mxGeometry>
        </mxCell>
        <mxCell id="X5ZohRRJykLTLMZnYuT2-120" value="" style="endArrow=none;html=1;rounded=0;fontSize=13;exitX=0.5;exitY=0.5;exitDx=0;exitDy=0;exitPerimeter=0;entryX=0;entryY=0.5;entryDx=0;entryDy=0;" edge="1" parent="1" source="X5ZohRRJykLTLMZnYuT2-99" target="X5ZohRRJykLTLMZnYuT2-118">
          <mxGeometry relative="1" as="geometry">
            <mxPoint x="530" y="1540" as="sourcePoint" />
            <mxPoint x="690" y="1540" as="targetPoint" />
          </mxGeometry>
        </mxCell>
        <mxCell id="X5ZohRRJykLTLMZnYuT2-121" value="Include" style="html=1;verticalAlign=bottom;endArrow=open;dashed=1;endSize=8;rounded=0;fontSize=13;exitX=1;exitY=0.5;exitDx=0;exitDy=0;" edge="1" parent="1" source="X5ZohRRJykLTLMZnYuT2-117" target="X5ZohRRJykLTLMZnYuT2-122">
          <mxGeometry relative="1" as="geometry">
            <mxPoint x="650" y="1540" as="sourcePoint" />
            <mxPoint x="630" y="1630" as="targetPoint" />
          </mxGeometry>
        </mxCell>
        <mxCell id="X5ZohRRJykLTLMZnYuT2-122" value="Verify Appointment" style="ellipse;whiteSpace=wrap;html=1;fontSize=13;" vertex="1" parent="1">
          <mxGeometry x="700" y="1580" width="140" height="70" as="geometry" />
        </mxCell>
        <mxCell id="X5ZohRRJykLTLMZnYuT2-124" value="Appointment Database" style="shape=umlActor;verticalLabelPosition=bottom;verticalAlign=top;html=1;fontSize=13;" vertex="1" parent="1">
          <mxGeometry x="1080" y="1640" width="30" height="60" as="geometry" />
        </mxCell>
        <mxCell id="X5ZohRRJykLTLMZnYuT2-125" value="" style="endArrow=none;html=1;rounded=0;fontSize=13;entryX=0.5;entryY=0.5;entryDx=0;entryDy=0;entryPerimeter=0;exitX=1;exitY=0.5;exitDx=0;exitDy=0;" edge="1" parent="1" source="X5ZohRRJykLTLMZnYuT2-122" target="X5ZohRRJykLTLMZnYuT2-124">
          <mxGeometry relative="1" as="geometry">
            <mxPoint x="920" y="1690" as="sourcePoint" />
            <mxPoint x="820" y="1635" as="targetPoint" />
          </mxGeometry>
        </mxCell>
        <mxCell id="X5ZohRRJykLTLMZnYuT2-126" value="Change Profile Picture" style="ellipse;whiteSpace=wrap;html=1;fontSize=13;" vertex="1" parent="1">
          <mxGeometry x="685" y="1263.82" width="140" height="70" as="geometry" />
        </mxCell>
        <mxCell id="X5ZohRRJykLTLMZnYuT2-128" value="" style="endArrow=none;html=1;rounded=0;fontSize=13;exitX=1;exitY=0.5;exitDx=0;exitDy=0;entryX=0;entryY=0.5;entryDx=0;entryDy=0;" edge="1" parent="1" source="X5ZohRRJykLTLMZnYuT2-109" target="X5ZohRRJykLTLMZnYuT2-126">
          <mxGeometry relative="1" as="geometry">
            <mxPoint x="530" y="1420" as="sourcePoint" />
            <mxPoint x="690" y="1420" as="targetPoint" />
          </mxGeometry>
        </mxCell>
        <mxCell id="X5ZohRRJykLTLMZnYuT2-129" value="Change Password" style="ellipse;whiteSpace=wrap;html=1;fontSize=13;" vertex="1" parent="1">
          <mxGeometry x="610" y="1388.82" width="140" height="70" as="geometry" />
        </mxCell>
        <mxCell id="X5ZohRRJykLTLMZnYuT2-130" value="" style="endArrow=none;html=1;rounded=0;fontSize=13;entryX=0;entryY=0.5;entryDx=0;entryDy=0;" edge="1" parent="1" target="X5ZohRRJykLTLMZnYuT2-129">
          <mxGeometry relative="1" as="geometry">
            <mxPoint x="540" y="1460" as="sourcePoint" />
            <mxPoint x="760.08" y="1490" as="targetPoint" />
          </mxGeometry>
        </mxCell>
        <mxCell id="X5ZohRRJykLTLMZnYuT2-131" value="Change Text Description" style="ellipse;whiteSpace=wrap;html=1;fontSize=13;" vertex="1" parent="1">
          <mxGeometry x="625" y="1458.82" width="140" height="70" as="geometry" />
        </mxCell>
        <mxCell id="X5ZohRRJykLTLMZnYuT2-132" value="" style="endArrow=none;html=1;rounded=0;fontSize=13;exitX=1;exitY=0.5;exitDx=0;exitDy=0;entryX=0;entryY=0.5;entryDx=0;entryDy=0;" edge="1" parent="1" source="X5ZohRRJykLTLMZnYuT2-109" target="X5ZohRRJykLTLMZnYuT2-131">
          <mxGeometry relative="1" as="geometry">
            <mxPoint x="530" y="1410" as="sourcePoint" />
            <mxPoint x="690" y="1410" as="targetPoint" />
          </mxGeometry>
        </mxCell>
        <mxCell id="X5ZohRRJykLTLMZnYuT2-133" style="edgeStyle=orthogonalEdgeStyle;rounded=0;orthogonalLoop=1;jettySize=auto;html=1;exitX=0.5;exitY=1;exitDx=0;exitDy=0;fontSize=13;" edge="1" parent="1" source="X5ZohRRJykLTLMZnYuT2-131" target="X5ZohRRJykLTLMZnYuT2-131">
          <mxGeometry relative="1" as="geometry" />
        </mxCell>
        <mxCell id="X5ZohRRJykLTLMZnYuT2-135" value="" style="endArrow=none;html=1;rounded=0;fontSize=13;exitX=1;exitY=0.5;exitDx=0;exitDy=0;entryX=0.5;entryY=0.5;entryDx=0;entryDy=0;entryPerimeter=0;" edge="1" parent="1" source="X5ZohRRJykLTLMZnYuT2-118" target="X5ZohRRJykLTLMZnYuT2-124">
          <mxGeometry relative="1" as="geometry">
            <mxPoint x="530" y="1530" as="sourcePoint" />
            <mxPoint x="690" y="1530" as="targetPoint" />
          </mxGeometry>
        </mxCell>
        <mxCell id="X5ZohRRJykLTLMZnYuT2-137" value="" style="endArrow=none;html=1;rounded=0;fontSize=13;exitX=0.5;exitY=0.5;exitDx=0;exitDy=0;exitPerimeter=0;entryX=0;entryY=0.5;entryDx=0;entryDy=0;" edge="1" parent="1" source="X5ZohRRJykLTLMZnYuT2-102" target="X5ZohRRJykLTLMZnYuT2-139">
          <mxGeometry relative="1" as="geometry">
            <mxPoint x="265" y="1880" as="sourcePoint" />
            <mxPoint x="480" y="1900" as="targetPoint" />
          </mxGeometry>
        </mxCell>
        <mxCell id="X5ZohRRJykLTLMZnYuT2-139" value="Create Counselor Profile" style="ellipse;whiteSpace=wrap;html=1;fontSize=13;" vertex="1" parent="1">
          <mxGeometry x="410" y="1870" width="140" height="70" as="geometry" />
        </mxCell>
        <mxCell id="X5ZohRRJykLTLMZnYuT2-140" value="Profile Picture" style="ellipse;whiteSpace=wrap;html=1;fontSize=13;" vertex="1" parent="1">
          <mxGeometry x="530" y="1720" width="140" height="70" as="geometry" />
        </mxCell>
        <mxCell id="X5ZohRRJykLTLMZnYuT2-141" value="Extends" style="html=1;verticalAlign=bottom;endArrow=open;dashed=1;endSize=8;rounded=0;fontSize=13;entryX=1;entryY=0;entryDx=0;entryDy=0;exitX=0.427;exitY=1.017;exitDx=0;exitDy=0;exitPerimeter=0;" edge="1" parent="1" source="X5ZohRRJykLTLMZnYuT2-140" target="X5ZohRRJykLTLMZnYuT2-139">
          <mxGeometry relative="1" as="geometry">
            <mxPoint x="270" y="1890" as="sourcePoint" />
            <mxPoint x="430.0812932590593" y="1900.4636865171651" as="targetPoint" />
          </mxGeometry>
        </mxCell>
        <mxCell id="X5ZohRRJykLTLMZnYuT2-142" value="Text Description" style="ellipse;whiteSpace=wrap;html=1;fontSize=13;" vertex="1" parent="1">
          <mxGeometry x="680" y="1760" width="140" height="70" as="geometry" />
        </mxCell>
        <mxCell id="X5ZohRRJykLTLMZnYuT2-143" value="Extends" style="html=1;verticalAlign=bottom;endArrow=open;dashed=1;endSize=8;rounded=0;fontSize=13;exitX=0;exitY=1;exitDx=0;exitDy=0;entryX=0.955;entryY=0.259;entryDx=0;entryDy=0;entryPerimeter=0;" edge="1" parent="1" source="X5ZohRRJykLTLMZnYuT2-142" target="X5ZohRRJykLTLMZnYuT2-139">
          <mxGeometry relative="1" as="geometry">
            <mxPoint x="660" y="1870" as="sourcePoint" />
            <mxPoint x="540" y="1900" as="targetPoint" />
          </mxGeometry>
        </mxCell>
        <mxCell id="X5ZohRRJykLTLMZnYuT2-145" value="Contact Information" style="ellipse;whiteSpace=wrap;html=1;fontSize=13;" vertex="1" parent="1">
          <mxGeometry x="710" y="1865" width="140" height="70" as="geometry" />
        </mxCell>
        <mxCell id="X5ZohRRJykLTLMZnYuT2-146" value="Includes" style="html=1;verticalAlign=bottom;endArrow=open;dashed=1;endSize=8;rounded=0;fontSize=13;exitX=0;exitY=0.5;exitDx=0;exitDy=0;entryX=1;entryY=0.5;entryDx=0;entryDy=0;" edge="1" parent="1" source="X5ZohRRJykLTLMZnYuT2-145" target="X5ZohRRJykLTLMZnYuT2-139">
          <mxGeometry relative="1" as="geometry">
            <mxPoint x="709.801293259055" y="1909.996313482838" as="sourcePoint" />
            <mxPoint x="560" y="1987.9700000000003" as="targetPoint" />
          </mxGeometry>
        </mxCell>
        <mxCell id="X5ZohRRJykLTLMZnYuT2-147" value="Include" style="html=1;verticalAlign=bottom;endArrow=open;dashed=1;endSize=8;rounded=0;fontSize=13;exitX=0;exitY=0.5;exitDx=0;exitDy=0;" edge="1" parent="1" source="X5ZohRRJykLTLMZnYuT2-148" target="X5ZohRRJykLTLMZnYuT2-152">
          <mxGeometry relative="1" as="geometry">
            <mxPoint x="655" y="2080" as="sourcePoint" />
            <mxPoint x="1025" y="1980" as="targetPoint" />
          </mxGeometry>
        </mxCell>
        <mxCell id="X5ZohRRJykLTLMZnYuT2-148" value="Enter Old Password" style="ellipse;whiteSpace=wrap;html=1;fontSize=13;" vertex="1" parent="1">
          <mxGeometry x="800" y="1950" width="140" height="70" as="geometry" />
        </mxCell>
        <mxCell id="X5ZohRRJykLTLMZnYuT2-149" value="Include" style="html=1;verticalAlign=bottom;endArrow=open;dashed=1;endSize=8;rounded=0;fontSize=13;exitX=0;exitY=0.5;exitDx=0;exitDy=0;" edge="1" parent="1" source="X5ZohRRJykLTLMZnYuT2-150" target="X5ZohRRJykLTLMZnYuT2-152">
          <mxGeometry relative="1" as="geometry">
            <mxPoint x="675.08" y="2240" as="sourcePoint" />
            <mxPoint x="905" y="2130" as="targetPoint" />
          </mxGeometry>
        </mxCell>
        <mxCell id="X5ZohRRJykLTLMZnYuT2-150" value="Enter New Password" style="ellipse;whiteSpace=wrap;html=1;fontSize=13;" vertex="1" parent="1">
          <mxGeometry x="800" y="2040" width="140" height="70" as="geometry" />
        </mxCell>
        <mxCell id="X5ZohRRJykLTLMZnYuT2-151" value="Change Profile Picture" style="ellipse;whiteSpace=wrap;html=1;fontSize=13;" vertex="1" parent="1">
          <mxGeometry x="580" y="1935" width="140" height="70" as="geometry" />
        </mxCell>
        <mxCell id="X5ZohRRJykLTLMZnYuT2-152" value="Change Password" style="ellipse;whiteSpace=wrap;html=1;fontSize=13;" vertex="1" parent="1">
          <mxGeometry x="585" y="2020" width="140" height="70" as="geometry" />
        </mxCell>
        <mxCell id="X5ZohRRJykLTLMZnYuT2-153" value="Change Text Description" style="ellipse;whiteSpace=wrap;html=1;fontSize=13;" vertex="1" parent="1">
          <mxGeometry x="570" y="2120" width="140" height="70" as="geometry" />
        </mxCell>
        <mxCell id="X5ZohRRJykLTLMZnYuT2-154" style="edgeStyle=orthogonalEdgeStyle;rounded=0;orthogonalLoop=1;jettySize=auto;html=1;exitX=0.5;exitY=1;exitDx=0;exitDy=0;fontSize=13;" edge="1" parent="1" source="X5ZohRRJykLTLMZnYuT2-153" target="X5ZohRRJykLTLMZnYuT2-153">
          <mxGeometry relative="1" as="geometry" />
        </mxCell>
        <mxCell id="X5ZohRRJykLTLMZnYuT2-155" value="Edit Counselor&lt;br&gt;Profile" style="ellipse;whiteSpace=wrap;html=1;fontSize=13;" vertex="1" parent="1">
          <mxGeometry x="410" y="2010" width="140" height="70" as="geometry" />
        </mxCell>
        <mxCell id="X5ZohRRJykLTLMZnYuT2-156" value="" style="endArrow=none;html=1;rounded=0;fontSize=13;exitX=0.5;exitY=0.5;exitDx=0;exitDy=0;exitPerimeter=0;entryX=0;entryY=0.5;entryDx=0;entryDy=0;" edge="1" parent="1" source="X5ZohRRJykLTLMZnYuT2-102" target="X5ZohRRJykLTLMZnYuT2-155">
          <mxGeometry relative="1" as="geometry">
            <mxPoint x="255" y="1915" as="sourcePoint" />
            <mxPoint x="420.00000000000296" y="1915" as="targetPoint" />
          </mxGeometry>
        </mxCell>
        <mxCell id="X5ZohRRJykLTLMZnYuT2-157" value="" style="endArrow=none;html=1;rounded=0;fontSize=13;exitX=0;exitY=0.5;exitDx=0;exitDy=0;" edge="1" parent="1" source="X5ZohRRJykLTLMZnYuT2-151" target="X5ZohRRJykLTLMZnYuT2-155">
          <mxGeometry relative="1" as="geometry">
            <mxPoint x="265" y="1925" as="sourcePoint" />
            <mxPoint x="430.00000000000296" y="1925" as="targetPoint" />
          </mxGeometry>
        </mxCell>
        <mxCell id="X5ZohRRJykLTLMZnYuT2-158" value="" style="endArrow=none;html=1;rounded=0;fontSize=13;exitX=1;exitY=0.5;exitDx=0;exitDy=0;entryX=0;entryY=0.5;entryDx=0;entryDy=0;" edge="1" parent="1" source="X5ZohRRJykLTLMZnYuT2-155" target="X5ZohRRJykLTLMZnYuT2-152">
          <mxGeometry relative="1" as="geometry">
            <mxPoint x="275" y="1935" as="sourcePoint" />
            <mxPoint x="440.00000000000296" y="1935" as="targetPoint" />
          </mxGeometry>
        </mxCell>
        <mxCell id="X5ZohRRJykLTLMZnYuT2-159" value="" style="endArrow=none;html=1;rounded=0;fontSize=13;exitX=1;exitY=1;exitDx=0;exitDy=0;" edge="1" parent="1" source="X5ZohRRJykLTLMZnYuT2-155" target="X5ZohRRJykLTLMZnYuT2-153">
          <mxGeometry relative="1" as="geometry">
            <mxPoint x="285" y="1945" as="sourcePoint" />
            <mxPoint x="450.00000000000296" y="1945" as="targetPoint" />
          </mxGeometry>
        </mxCell>
        <mxCell id="X5ZohRRJykLTLMZnYuT2-160" value="Change Contact Information" style="ellipse;whiteSpace=wrap;html=1;fontSize=13;" vertex="1" parent="1">
          <mxGeometry x="410" y="2130" width="140" height="70" as="geometry" />
        </mxCell>
        <mxCell id="X5ZohRRJykLTLMZnYuT2-161" value="" style="endArrow=none;html=1;rounded=0;fontSize=13;exitX=0.5;exitY=1;exitDx=0;exitDy=0;entryX=0.5;entryY=0;entryDx=0;entryDy=0;" edge="1" parent="1" source="X5ZohRRJykLTLMZnYuT2-155" target="X5ZohRRJykLTLMZnYuT2-160">
          <mxGeometry relative="1" as="geometry">
            <mxPoint x="295" y="1955" as="sourcePoint" />
            <mxPoint x="460.00000000000296" y="1955" as="targetPoint" />
          </mxGeometry>
        </mxCell>
        <mxCell id="X5ZohRRJykLTLMZnYuT2-162" value="" style="endArrow=none;html=1;rounded=0;fontSize=13;exitX=0.5;exitY=0.5;exitDx=0;exitDy=0;exitPerimeter=0;entryX=0;entryY=0.5;entryDx=0;entryDy=0;" edge="1" parent="1" source="X5ZohRRJykLTLMZnYuT2-102" target="X5ZohRRJykLTLMZnYuT2-117">
          <mxGeometry relative="1" as="geometry">
            <mxPoint x="305" y="1965" as="sourcePoint" />
            <mxPoint x="470.00000000000296" y="1965" as="targetPoint" />
          </mxGeometry>
        </mxCell>
        <mxCell id="X5ZohRRJykLTLMZnYuT2-163" value="" style="endArrow=none;html=1;rounded=0;fontSize=13;exitX=0.5;exitY=0.5;exitDx=0;exitDy=0;exitPerimeter=0;entryX=0;entryY=0.5;entryDx=0;entryDy=0;" edge="1" parent="1" source="X5ZohRRJykLTLMZnYuT2-102" target="X5ZohRRJykLTLMZnYuT2-118">
          <mxGeometry relative="1" as="geometry">
            <mxPoint x="315" y="1975" as="sourcePoint" />
            <mxPoint x="480.00000000000296" y="1975" as="targetPoint" />
          </mxGeometry>
        </mxCell>
        <mxCell id="X5ZohRRJykLTLMZnYuT2-165" value="&lt;font style=&quot;font-size: 13px&quot;&gt;Profile&lt;/font&gt;" style="text;strokeColor=none;fillColor=none;html=1;fontSize=24;fontStyle=1;verticalAlign=middle;align=center;" vertex="1" parent="1">
          <mxGeometry x="150" y="1160" width="100" height="40" as="geometry" />
        </mxCell>
      </root>
    </mxGraphModel>
  </diagram>
</mxfile>
